<svg width="38" height="38" viewBox="0 0 38 38" fill="none" xmlns="http://www.w3.org/2000/svg">
<path d="M18.0396 28.7667C18.0396 23.725 22.1305 19.6 27.1305 19.6C28.8578 19.6 30.4032 20.0583 31.7669 20.8833C31.8578 20.8833 31.9487 20.975 32.0396 20.975V4.2C32.0396 3.00833 31.0396 2 29.8578 2H6.2214C5.03958 2 4.03958 3.00833 4.03958 4.2V32.8C4.03958 33.9917 5.03958 35 6.2214 35H20.4032C18.9487 33.35 18.0396 31.15 18.0396 28.7667ZM11.8578 7.225H24.2214C25.0396 7.225 25.6759 7.86667 25.6759 8.69167C25.6759 9.51667 25.0396 10.1583 24.2214 10.1583H11.8578C11.0396 10.1583 10.4032 9.51667 10.4032 8.69167C10.4032 7.86667 11.0396 7.225 11.8578 7.225ZM11.8578 13.825H24.2214C25.0396 13.825 25.6759 14.4667 25.6759 15.2917C25.6759 16.1167 25.0396 16.7583 24.2214 16.7583H11.8578C11.0396 16.7583 10.4032 16.1167 10.4032 15.2917C10.4032 14.4667 11.0396 13.825 11.8578 13.825ZM16.9487 23.3583H11.8578C11.0396 23.3583 10.4032 22.7167 10.4032 21.8917C10.4032 21.0667 11.0396 20.425 11.8578 20.425H16.9487C17.7669 20.425 18.4032 21.0667 18.4032 21.8917C18.4032 22.7167 17.7669 23.3583 16.9487 23.3583Z" fill="#3060ED"/>
<path d="M20 28.5C20 24.3333 23.3333 21 27.5 21C31.6667 21 35 24.3333 35 28.5C35 32.6667 31.6667 36 27.5 36C23.3333 36 20 32.6667 20 28.5ZM28.2407 31L28.2407 27.5741L29.0741 28.4074C29.3519 28.6852 29.8148 28.6852 30.0926 28.4074C30.3704 28.1296 30.3704 27.6667 30.0926 27.3889L28.0556 25.3519C27.7778 25.0741 27.3148 25.0741 27.037 25.3519L25 27.3889C24.7222 27.6667 24.7222 28.1296 25 28.4074C25.2778 28.6852 25.7407 28.6852 26.0185 28.4074L26.7593 27.6667L26.7593 31C26.7593 31.3704 27.1296 31.7407 27.5 31.7407C27.8704 31.7407 28.2407 31.3704 28.2407 31Z" fill="#F37B24"/>
</svg>
