<svg width="38" height="38" viewBox="0 0 38 38" fill="none" xmlns="http://www.w3.org/2000/svg">
<path d="M19 1C9.064 1 1 9.064 1 19C1 28.936 9.064 37 19 37C28.936 37 37 28.936 37 19C37 9.064 28.936 1 19 1ZM13.708 28.468C13.708 29.188 13.132 29.8 12.376 29.8H9.748C8.992 29.8 8.416 29.188 8.416 28.468V20.512C8.416 19.792 8.992 19.18 9.748 19.18H12.376C13.132 19.18 13.708 19.792 13.708 20.512V28.468ZM21.484 28.432C21.484 29.188 20.872 29.8 20.116 29.8H17.452C16.696 29.8 16.084 29.188 16.084 28.432V9.568C16.084 8.812 16.696 8.2 17.452 8.2H20.116C20.872 8.2 21.484 8.812 21.484 9.568V28.432ZM29.584 28.468C29.584 29.188 29.008 29.8 28.252 29.8H25.624C24.868 29.8 24.292 29.188 24.292 28.468V15.22C24.292 14.5 24.868 13.888 25.624 13.888H28.252C29.008 13.888 29.584 14.5 29.584 15.22V28.468Z" fill="#3060ED"/>
</svg>
