<svg width="38" height="38" viewBox="0 0 38 38" fill="none" xmlns="http://www.w3.org/2000/svg">
<path d="M33.6626 22.6604H24.9089C24.5544 22.6609 24.2145 22.7935 23.9638 23.0292C23.7131 23.2648 23.5721 23.5843 23.5715 23.9175V34.888C23.5712 34.933 23.5804 34.9777 23.5986 35.0194C23.6167 35.0611 23.6435 35.099 23.6773 35.1309C23.711 35.1629 23.7512 35.1882 23.7955 35.2055C23.8397 35.2228 23.8872 35.2317 23.9351 35.2317C23.9751 35.2239 24.0163 35.2239 24.0563 35.2317C24.1381 35.2321 24.2176 35.2065 24.282 35.1591L25.7845 34.0473L27.287 35.1591C27.3517 35.2059 27.431 35.2313 27.5127 35.2313C27.5943 35.2313 27.6737 35.2059 27.7383 35.1591L29.2952 34.0041L30.806 35.1237C30.8707 35.1705 30.95 35.1959 31.0317 35.1959C31.1133 35.1959 31.1927 35.1705 31.2574 35.1237L32.7578 34.0119L34.2874 35.1434C34.3561 35.1946 34.4423 35.2204 34.5298 35.216C34.5636 35.2263 34.5988 35.2316 34.6343 35.2317C34.6823 35.2317 34.7299 35.2229 34.7742 35.2056C34.8186 35.1883 34.8589 35.163 34.8929 35.1311C34.9268 35.0991 34.9538 35.0613 34.9722 35.0195C34.9905 34.9778 35 34.9331 35 34.888V23.9175C34.9994 23.5843 34.8584 23.2648 34.6077 23.0292C34.357 22.7935 34.0171 22.6609 33.6626 22.6604ZM32.6178 31.0459C32.6261 31.1096 32.6076 31.1738 32.5662 31.2248C32.5248 31.2759 32.4638 31.3096 32.3962 31.3189H26.0227C25.9551 31.3096 25.8941 31.2759 25.8527 31.2248C25.8113 31.1738 25.7928 31.1096 25.8012 31.0459V30.6079C25.7934 30.5445 25.8122 30.4807 25.8535 30.4301C25.8949 30.3795 25.9556 30.3461 26.0227 30.3368H32.39C32.4571 30.3461 32.5178 30.3795 32.5591 30.4301C32.6005 30.4807 32.6193 30.5445 32.6115 30.6079V31.0459H32.6178ZM32.6178 29.1661C32.6254 29.2303 32.6058 29.2949 32.5632 29.3456C32.5205 29.3964 32.4583 29.4293 32.39 29.4371H26.0164C25.9493 29.4279 25.8886 29.3944 25.8473 29.3438C25.8059 29.2932 25.7871 29.2295 25.7949 29.1661V28.7261C25.7871 28.6627 25.8059 28.599 25.8473 28.5484C25.8886 28.4978 25.9493 28.4643 26.0164 28.455H32.39C32.4571 28.4643 32.5178 28.4978 32.5591 28.5484C32.6005 28.599 32.6193 28.6627 32.6115 28.7261V29.1661H32.6178ZM32.6178 27.0722C32.6255 27.1355 32.6068 27.1993 32.5654 27.2499C32.5241 27.3005 32.4634 27.334 32.3962 27.3432H26.0227C25.9556 27.334 25.8949 27.3005 25.8535 27.2499C25.8122 27.1993 25.7934 27.1355 25.8012 27.0722V26.6322C25.7934 26.5688 25.8122 26.505 25.8535 26.4544C25.8949 26.4038 25.9556 26.3704 26.0227 26.3611H32.39C32.4571 26.3704 32.5178 26.4038 32.5591 26.4544C32.6005 26.505 32.6193 26.5688 32.6115 26.6322V27.0722H32.6178Z" fill="#F37B24"/>
<path d="M15.5693 18.46L4.08639 12.0609C3.97479 11.9992 3.84906 11.9677 3.7216 11.9696C3.59415 11.9715 3.4694 12.0067 3.35968 12.0717C3.24997 12.1368 3.15908 12.2294 3.09601 12.3405C3.03295 12.4515 2.99988 12.5772 3.00008 12.7049V26.1944C3.00012 26.4542 3.06864 26.7094 3.19868 26.9341C3.32873 27.1589 3.5157 27.3452 3.74065 27.4742L15.2277 33.9943C15.3391 34.0574 15.4651 34.0901 15.5931 34.0891C15.7211 34.0882 15.8467 34.0536 15.9572 33.9889C16.0677 33.9241 16.1594 33.8315 16.2231 33.7202C16.2867 33.6088 16.3202 33.4827 16.3201 33.3544V19.7337C16.3205 19.4734 16.251 19.2178 16.1189 18.9937C15.9868 18.7696 15.797 18.5852 15.5693 18.46ZM13.7629 21.6452C13.6698 21.8245 13.5293 21.9746 13.3569 22.0791C13.1844 22.1837 12.9866 22.2386 12.785 22.238C12.6089 22.2387 12.4353 22.1957 12.2797 22.1129L5.28726 18.4498C5.15938 18.3825 5.04598 18.2905 4.95354 18.1793C4.86109 18.068 4.79142 17.9395 4.74848 17.8013C4.70555 17.663 4.6902 17.5176 4.70332 17.3734C4.71643 17.2292 4.75775 17.089 4.82491 16.9608C4.89208 16.8326 4.98377 16.7189 5.09476 16.6262C5.20575 16.5335 5.33386 16.4637 5.47177 16.4206C5.60969 16.3776 5.75471 16.3622 5.89856 16.3753C6.04241 16.3885 6.18226 16.4299 6.31014 16.4972L13.2965 20.1603C13.5546 20.2953 13.7487 20.5276 13.8362 20.806C13.9237 21.0844 13.8973 21.3863 13.7629 21.6452ZM22.1956 23.2204C22.1956 22.8972 22.2591 22.5772 22.3824 22.2786C22.5058 21.9799 22.6866 21.7086 22.9146 21.4801C23.1426 21.2515 23.4132 21.0702 23.711 20.9466C24.0089 20.8229 24.3281 20.7592 24.6505 20.7592H31.5713V12.7049C31.5718 12.5767 31.5387 12.4505 31.4753 12.3391C31.4119 12.2277 31.3204 12.135 31.21 12.0702C31.0995 12.0054 30.9741 11.9708 30.8461 11.9699C30.7182 11.969 30.5923 12.0018 30.4809 12.065L18.998 18.46C18.7718 18.5869 18.5831 18.7716 18.4512 18.9953C18.3193 19.2191 18.249 19.4738 18.2472 19.7337V33.3462C18.2469 33.4748 18.2803 33.6013 18.3441 33.7129C18.4079 33.8245 18.4998 33.9173 18.6107 33.9821C18.7215 34.0469 18.8474 34.0814 18.9757 34.0821C19.104 34.0828 19.2302 34.0497 19.3417 33.9861L22.2058 32.3658L22.1956 23.2204ZM29.9449 8.99469L17.7869 2.27767C17.5684 2.15422 17.3218 2.08936 17.0709 2.08936C16.82 2.08936 16.5734 2.15422 16.3549 2.27767L4.5876 8.94546C4.47432 9.00906 4.37998 9.10177 4.31432 9.21407C4.24867 9.32637 4.21405 9.45418 4.21405 9.58435C4.21405 9.71452 4.24867 9.84233 4.31432 9.95463C4.37998 10.0669 4.47432 10.1596 4.5876 10.2232L16.3712 16.8787C16.5878 16.9992 16.8314 17.0625 17.0791 17.0625C17.3268 17.0625 17.5704 16.9992 17.7869 16.8787L29.9409 10.2725C30.0538 10.2088 30.1479 10.1162 30.2135 10.0042C30.2791 9.89216 30.3139 9.76468 30.3143 9.63477C30.3147 9.50486 30.2808 9.37716 30.2159 9.26471C30.151 9.15226 30.0575 9.05908 29.9449 8.99469Z" fill="#3060ED"/>
<rect x="24.7143" y="26.0891" width="9.1428" height="5.71425" fill="#F37B24"/>
<path d="M26.5977 26.0597V27.2917H27.9657V26.0597H26.5977ZM28.6537 30.6597L28.7497 31.2997C27.6857 31.5877 26.5657 31.8917 25.7417 32.1157L25.5657 31.4117L25.9497 31.3237V28.5957H26.5577V31.1797L27.0857 31.0597V27.9237H25.9657V25.4197H28.6457V27.9237H27.7417V28.9237H28.6617V29.5717H27.7417V30.8997C28.0457 30.8197 28.3577 30.7397 28.6537 30.6597ZM29.6857 27.4997V28.3397H31.8137V27.4997H29.6857ZM31.8137 26.0837H29.6857V26.8917H31.8137V26.0837ZM32.4457 29.1637L32.9097 29.6757C32.5417 29.9877 32.0537 30.3237 31.6537 30.5637C32.0057 31.0837 32.4537 31.4997 33.0137 31.7477C32.8537 31.8917 32.6377 32.1797 32.5337 32.3797C31.3737 31.7637 30.7177 30.5397 30.3497 28.9797H29.6857V31.4357L30.9817 31.1317C30.9817 31.3477 30.9897 31.6437 31.0137 31.8117C29.4137 32.2357 29.1497 32.3237 28.9817 32.4437C28.9257 32.2757 28.7657 31.9797 28.6537 31.8437C28.7897 31.7637 28.9817 31.5717 28.9817 31.2357V25.4357H32.4937V28.9797H30.9577C31.0697 29.3557 31.1897 29.7077 31.3577 30.0357C31.7337 29.7797 32.1737 29.4357 32.4457 29.1637Z" fill="white"/>
</svg>
