<svg width="38" height="38" viewBox="0 0 38 38" fill="none" xmlns="http://www.w3.org/2000/svg">
<path d="M13.8522 9.92959C13.8522 6.66013 11.1882 4.0221 7.92415 4.0221C4.65232 4.0221 2 6.67563 2 9.92959C2 11.5178 2.63114 12.955 3.65721 14.0242C3.37069 15.2173 3.22742 16.4336 3.23129 17.65C3.23129 23.2786 6.20112 28.1982 10.6539 30.9641L11.8465 26.1064C9.42262 24.0804 7.88543 21.0395 7.88543 17.6539C7.88543 17.0418 7.93964 16.4259 8.03257 15.8409C11.2386 15.7867 13.8522 13.1719 13.8522 9.92959ZM18.9322 6.6214C20.9805 6.6214 22.901 7.18309 24.5505 8.13991C24.2872 8.82944 24.1556 9.54996 24.1517 10.2782C24.1517 13.5438 26.8118 16.1857 30.0758 16.1857C33.3399 16.1857 36 13.5283 36 10.2782C36 7.02814 33.3516 4.38624 30.0758 4.38624C29.3131 4.38624 28.5774 4.52957 27.8959 4.80073C25.352 3.03817 22.2583 2 18.9206 2C16.7175 2 14.5414 2.46098 12.5667 3.33645L15.2809 7.25669C16.4425 6.83445 17.6816 6.6214 18.9322 6.6214ZM29.979 18.1575C29.8048 22.1862 27.4622 25.6377 24.0936 27.4119C23.1179 25.4905 21.116 24.185 18.8122 24.185C15.5365 24.185 12.8881 26.8386 12.8881 30.0925C12.8881 33.3465 15.5481 36 18.8122 36C21.2709 36 23.3695 34.5047 24.2795 32.3858C30.3237 30.201 34.6448 24.4252 34.6448 17.6461C34.6448 17.3014 34.6293 16.9527 34.6022 16.608L29.979 18.1575Z" fill="#3060ED"/>
<circle cx="19" cy="18" r="4" fill="#F37B24"/>
</svg>
