<svg width="38" height="38" viewBox="0 0 38 38" fill="none" xmlns="http://www.w3.org/2000/svg">
<path d="M30.25 34H7.75C6.75544 34 5.80161 33.6049 5.09835 32.9017C4.39509 32.1984 4 31.2446 4 30.25V7.75C4 6.75544 4.39509 5.80161 5.09835 5.09835C5.80161 4.39509 6.75544 4 7.75 4H30.25C31.2446 4 32.1984 4.39509 32.9017 5.09835C33.6049 5.80161 34 6.75544 34 7.75V30.25C34 31.2446 33.6049 32.1984 32.9017 32.9017C32.1984 33.6049 31.2446 34 30.25 34ZM12.2688 13.5156H5.85625V15.8013H7.61875V24.4881H10.5063V15.8013H12.2688V13.5156ZM17.875 22.3544H15.7938V19.9169H17.5563V17.7813H15.7938V15.6475H17.725V13.5138H12.9063V24.4863H17.875V22.3525V22.3544ZM21.5688 15.3438C21.6311 15.2859 21.7054 15.2423 21.7864 15.2161C21.8673 15.1898 21.953 15.1816 22.0375 15.1919C22.2063 15.1919 22.3563 15.1919 22.3563 15.3438C22.5079 15.5665 22.5684 15.839 22.525 16.105V16.8681H25.2438V16.4106C25.28 15.7848 25.1709 15.1591 24.925 14.5825C24.6232 14.1972 24.2387 13.8845 23.8 13.6675C23.1828 13.4645 22.5372 13.3613 21.8875 13.3619C21.288 13.3749 20.6939 13.478 20.125 13.6675C19.8813 13.7268 19.6538 13.8397 19.4592 13.998C19.2646 14.1563 19.1077 14.356 19 14.5825C18.7707 15.1639 18.6622 15.7859 18.6813 16.4106C18.638 16.8736 18.689 17.3405 18.8313 17.7831C18.9342 18.1158 19.0996 18.4257 19.3188 18.6963C19.7118 19.1579 20.2058 19.5229 20.7625 19.7631C21.5688 20.3725 22.0375 20.6781 22.2063 20.83C22.4433 21.191 22.5552 21.6198 22.525 22.0506C22.5476 22.1583 22.5441 22.2698 22.5148 22.3758C22.4854 22.4819 22.431 22.5793 22.3563 22.66C22.2939 22.7179 22.2196 22.7615 22.1386 22.7877C22.0577 22.8139 21.972 22.8222 21.8875 22.8119C21.5688 22.8119 21.4 22.8119 21.4 22.66C21.323 22.5504 21.2699 22.4258 21.2441 22.2943C21.2183 22.1629 21.2203 22.0275 21.25 21.8969V20.5263H18.5125V21.2875C18.518 21.9102 18.6257 22.5278 18.8313 23.1156C19.0876 23.5785 19.4805 23.951 19.9563 24.1825C20.6051 24.4946 21.3176 24.6512 22.0375 24.64C22.6969 24.7151 23.3643 24.6101 23.9688 24.3363C24.431 24.1577 24.8248 23.8374 25.0938 23.4213C25.2555 22.7739 25.3062 22.1037 25.2438 21.4394C25.31 20.6483 25.1472 19.8549 24.775 19.1538C24.0857 18.4033 23.2663 17.784 22.3563 17.3256C22.0384 17.2063 21.764 16.994 21.5688 16.7163C21.4171 16.4928 21.3567 16.2197 21.4 15.9531C21.3769 15.8452 21.3802 15.7333 21.4095 15.6268C21.4389 15.5204 21.4935 15.4227 21.5688 15.3419V15.3438ZM32.1438 13.5156H25.7313V15.8013H27.4938V24.4881H30.3813V15.6494H32.1438V13.5156Z" fill="#3060ED"/>
</svg>
