<svg width="38" height="38" viewBox="0 0 38 38" fill="none" xmlns="http://www.w3.org/2000/svg">
<path d="M34.8593 16.2603H31.335C30.7051 16.2603 30.0411 15.7668 29.8368 15.1882L29.36 14.048C29.0706 13.4865 29.2068 12.6697 29.6495 12.2272L32.1352 9.70871C32.5779 9.26627 32.5779 8.53453 32.1352 8.09209L29.8878 5.84585C29.4452 5.4034 28.7131 5.4034 28.2704 5.84585L25.7506 8.38138C25.308 8.82382 24.4907 8.95996 23.9289 8.67067L22.8052 8.21121C22.2093 8.02402 21.7156 7.34334 21.7156 6.73073V3.14014C21.7156 2.51051 21.2048 2 20.5749 2H17.4081C16.7782 2 16.2674 2.51051 16.2674 3.14014V6.73073C16.2674 7.36036 15.7737 8.02402 15.1778 8.21121L14.0541 8.67067C13.4922 8.95996 12.675 8.82382 12.2323 8.38138L9.71257 5.84585C9.2699 5.4034 8.53781 5.4034 8.09514 5.84585L5.84777 8.10911C5.40511 8.55155 5.40511 9.28328 5.84777 9.72573L8.36755 12.2442C8.81022 12.6867 8.92939 13.5035 8.65699 14.0651L8.18027 15.2052C7.97596 15.8008 7.31197 16.2773 6.68202 16.2773H3.14071C2.51077 16.2603 2 16.7708 2 17.4004V20.5826C2 21.2122 2.51077 21.7227 3.14071 21.7227H6.63095C7.26089 21.7227 7.92489 22.2162 8.11217 22.8118L8.58888 24.003C8.86129 24.5646 8.74211 25.3814 8.29945 25.8238L5.84777 28.2743C5.40511 28.7167 5.40511 29.4484 5.84777 29.8909L8.09514 32.1371C8.53781 32.5796 9.2699 32.5796 9.71257 32.1371L12.1472 29.7037C12.5899 29.2613 13.4071 29.1251 13.969 29.4144L15.1778 29.9249C15.7737 30.1121 16.2674 30.7928 16.2674 31.4224V34.8599C16.2674 35.4895 16.7782 36 17.4081 36H20.5919C21.2218 36 21.7326 35.4895 21.7326 34.8599V31.4224C21.7326 30.7928 22.2263 30.1291 22.8222 29.9249L23.7076 29.5506L21.988 27.8318C21.0346 28.1552 20.03 28.3253 19.0085 28.3253C16.5398 28.3253 14.2073 27.3554 12.4707 25.6196C10.7171 23.8669 9.76365 21.5526 9.76365 19.0851C9.76365 16.6176 10.7341 14.2863 12.4707 12.5505C14.2243 10.7978 16.5398 9.84484 19.0085 9.84484C21.4772 9.84484 23.8097 10.8148 25.5463 12.5505C27.3 14.3033 28.2534 16.6176 28.2534 19.0851C28.2534 20.0891 28.1002 21.0761 27.7937 21.995L29.5133 23.7137L29.8878 22.8118C30.0751 22.2162 30.7391 21.7227 31.3691 21.7227H34.8593C35.4892 21.7227 36 21.2122 36 20.5826V17.4004C36 16.7708 35.4892 16.2603 34.8593 16.2603ZM25.972 22.7097C25.6144 22.3524 25.4442 22.0631 25.6485 21.4845C26.7211 18.4725 25.7336 15.3754 23.1117 13.5375C21.4602 12.3804 19.6044 12.04 17.5613 12.6527C18.3275 13.5546 19.1788 14.3033 19.996 15.1031C21.5794 16.6687 21.5964 18.6086 20.0981 20.1061C18.634 21.5526 16.659 21.5015 15.1437 19.97C14.3435 19.1702 13.5774 18.3363 12.7942 17.5195C12.692 17.5706 12.6069 17.6386 12.5048 17.6897C12.0451 20.1572 12.6069 22.3524 14.4627 24.1221C16.4377 26.011 18.7872 26.5385 21.3751 25.6707C22.0391 25.4494 22.3796 25.5686 22.8393 26.028C24.7631 27.985 28.2704 31.3033 30.2283 33.2262C31.1818 34.1622 32.3395 34.1792 33.2759 33.3794C34.4337 32.3754 34.5018 31.031 33.3781 29.9249C31.4542 27.951 27.9469 24.6326 25.972 22.7097ZM31.6415 32.5115C31.0456 32.5115 30.5518 32.035 30.5518 31.4224C30.5518 30.8268 31.0285 30.3333 31.6415 30.3333C32.2374 30.3333 32.7311 30.8098 32.7311 31.4224C32.7311 32.035 32.2544 32.5115 31.6415 32.5115Z" fill="#3060ED"/>
</svg>
