<svg width="38" height="38" viewBox="0 0 38 38" fill="none" xmlns="http://www.w3.org/2000/svg">
<path d="M28.0667 20.0987C32.447 20.0987 36 23.6575 36 28.0494C36.0011 29.0923 35.7968 30.1253 35.3987 31.0893C35.0006 32.0533 34.4166 32.9295 33.6799 33.6678C32.9432 34.4061 32.0683 34.992 31.1052 35.3922C30.1421 35.7923 29.1096 35.9989 28.0667 36C27.0237 35.9989 25.9912 35.7923 25.0281 35.3922C24.065 34.992 23.1901 34.4061 22.4534 33.6678C21.7168 32.9295 21.1327 32.0533 20.7346 31.0893C20.3365 30.1253 20.1322 29.0923 20.1333 28.0494C20.1322 27.0064 20.3365 25.9734 20.7346 25.0094C21.1327 24.0454 21.7168 23.1692 22.4534 22.4309C23.1901 21.6927 24.065 21.1067 25.0281 20.7065C25.9912 20.3064 27.0237 20.0998 28.0667 20.0987ZM32.5377 12.9018C32.5794 12.9833 32.6008 13.0737 32.6 13.1653V19.8522C30.6365 19.0674 29.1235 18.6763 28.0667 18.6763C26.8373 18.6778 25.6203 18.9215 24.4851 19.3933C23.3499 19.8651 22.3188 20.556 21.4505 21.4263C20.5823 22.2967 19.894 23.3296 19.4249 24.4659C18.9558 25.6023 18.7152 26.82 18.7167 28.0494C18.7126 30.492 19.6645 32.8392 21.3687 34.5889L18.966 35.5977C18.88 35.6335 18.7865 35.6476 18.6938 35.6387C18.601 35.6299 18.5119 35.5982 18.4343 35.5467C18.3567 35.4951 18.293 35.4252 18.2488 35.3432C18.2047 35.2611 18.1814 35.1695 18.1812 35.0763V20.0647C18.181 19.9607 18.2094 19.8586 18.2634 19.7696C18.3174 19.6806 18.3948 19.6082 18.4872 19.5604L31.7727 12.661C31.8389 12.6266 31.9112 12.6056 31.9855 12.5993C32.0598 12.5929 32.1347 12.6013 32.2058 12.6239C32.2768 12.6466 32.3427 12.683 32.3997 12.7312C32.4567 12.7794 32.5035 12.8383 32.5377 12.9046V12.9018ZM2.56669 12.4938C2.65851 12.4938 2.74894 12.5162 2.83019 12.5589L16.1185 19.5632C16.21 19.6112 16.2865 19.6833 16.34 19.7717C16.3934 19.8601 16.4216 19.9614 16.4217 20.0647V34.9913C16.4216 35.0888 16.3964 35.1847 16.3485 35.2697C16.3006 35.3546 16.2315 35.4257 16.148 35.4762C16.0645 35.5266 15.9694 35.5546 15.872 35.5576C15.7745 35.5605 15.6779 35.5382 15.5915 35.4928L2.30319 28.4914C2.2109 28.4429 2.13376 28.3699 2.08028 28.2804C2.02679 28.191 1.99902 28.0884 2.00003 27.9842V13.052C2.00003 12.7403 2.25503 12.4853 2.56669 12.4853V12.4938ZM31.4213 26.7063H30.2597C30.2483 30.5598 30.186 31.9057 27.5028 32.7104C27.755 32.9512 28.0667 33.4074 28.1857 33.7077C29.5627 33.2629 30.356 32.6509 30.8207 31.7017C31.5177 32.3137 32.4045 33.1184 32.8238 33.6341L33.7305 32.784C33.2545 32.2429 32.2855 31.424 31.5517 30.8488L30.9425 31.3872C31.3618 30.2821 31.4213 28.7804 31.4213 26.7063ZM26.9532 27.6073L26.7265 27.6782H23.3832V28.8909H26.1372C25.817 29.5426 25.46 30.1744 25.0718 30.7893C24.8307 30.5825 24.5945 30.3699 24.3635 30.1518L23.4172 30.8601C24.2558 31.6903 25.3467 32.818 25.8255 33.5377L26.8455 32.699C26.5733 32.3316 26.273 31.9858 25.9473 31.6648C26.6047 30.6675 27.3952 29.3357 27.8513 28.1712L26.9532 27.6045V27.6073ZM33.6002 22.9832H28.1035V24.2299H30.2115C30.1152 24.5699 29.9848 24.9382 29.8743 25.2641H28.3783V30.8856H29.6363V26.2813H32.0333V30.8346H33.3508V25.2613H31.0983L31.5177 24.2271H33.6002V22.9803V22.9832ZM25.3835 25.6013L24.4853 26.1396C24.9273 26.5845 25.4543 27.1965 25.7178 27.5847L26.6302 26.933C26.2514 26.456 25.8345 26.0107 25.3835 25.6013ZM25.2277 22.3712C24.6752 23.7879 23.6212 25.3831 22.4 26.3436C22.6862 26.5731 23.1423 27.018 23.3463 27.2815C24.1963 26.5505 24.9273 25.6239 25.5393 24.5897C26.2703 25.3491 27.0608 26.2501 27.4433 26.8735L28.3188 25.8761C27.8655 25.2414 26.9163 24.2667 26.1258 23.4875C26.2448 23.2382 26.3525 22.986 26.4488 22.731L25.2277 22.3712ZM6.02902 17.135C5.97596 17.1659 5.93187 17.2101 5.90107 17.2633C5.87027 17.3164 5.85383 17.3767 5.85336 17.4381V18.4922C5.85336 18.6197 5.92136 18.733 6.02902 18.7953L12.0272 22.2408C12.0805 22.2716 12.141 22.2878 12.2026 22.2879C12.2642 22.2879 12.3247 22.2718 12.378 22.2411C12.4314 22.2104 12.4758 22.1662 12.5067 22.1129C12.5376 22.0597 12.554 21.9992 12.5542 21.9376V20.8836C12.5545 20.8216 12.5384 20.7607 12.5075 20.7069C12.4767 20.6532 12.4322 20.6086 12.3785 20.5776L6.38035 17.1378C6.32695 17.1069 6.26636 17.0907 6.20469 17.0907C6.14302 17.0907 6.08243 17.1069 6.02902 17.1378V17.135ZM17.5777 2.06672L31.6678 9.70567C31.7582 9.7545 31.8336 9.82699 31.886 9.91538C31.9384 10.0038 31.9657 10.1047 31.9652 10.2075C31.9646 10.3102 31.9361 10.4109 31.8827 10.4987C31.8293 10.5864 31.7531 10.6581 31.6622 10.7059L17.5947 18.1182C17.5144 18.1603 17.4251 18.1826 17.3344 18.1831C17.2436 18.1836 17.1541 18.1623 17.0733 18.121L2.94636 10.9241C2.85485 10.8773 2.77778 10.8065 2.7234 10.7193C2.66901 10.6321 2.63936 10.5318 2.63761 10.4291C2.63586 10.3263 2.66209 10.225 2.71348 10.136C2.76487 10.047 2.83949 9.97369 2.92936 9.92385L17.0337 2.06955C17.1171 2.02392 17.2106 2 17.3057 2C17.4007 2 17.4943 2.02392 17.5777 2.06955V2.06672Z" fill="#3060ED"/>
<circle cx="28" cy="28" r="8" fill="#F37B24"/>
<path d="M27.7874 26.128H28.7874C28.8834 25.896 28.9794 25.608 29.0514 25.36H27.5954V24.704H31.1554V25.36H29.7394C29.6354 25.616 29.5314 25.896 29.4434 26.128H30.9554V29.84H30.2674V26.68H28.4514V29.848H27.7874V26.128ZM27.6274 26.608L27.1714 27.136C26.8914 26.704 26.3394 26.056 25.8274 25.528C25.4274 26.232 24.9154 26.88 24.3474 27.392C24.2354 27.264 23.9954 27.032 23.8354 26.92C24.6434 26.256 25.3314 25.208 25.6834 24.272L26.3314 24.464C26.2674 24.624 26.1954 24.784 26.1234 24.944C26.6674 25.48 27.3154 26.168 27.6274 26.608ZM25.2114 26.672L25.6754 26.384C25.9874 26.664 26.3234 27.032 26.4914 27.28L26.0034 27.632C25.8354 27.368 25.4914 26.96 25.2114 26.672ZM26.8194 27.8L27.2994 28.088C26.9874 28.848 26.4434 29.76 26.0194 30.392C26.2754 30.648 26.5074 30.912 26.6674 31.112L26.1314 31.552C25.8034 31.08 25.0834 30.336 24.4994 29.816L24.9954 29.44C25.1714 29.584 25.3554 29.76 25.5474 29.928C25.8274 29.512 26.1474 28.968 26.3874 28.48H24.4274V27.84H26.7074L26.8194 27.8ZM29.0594 27.008H29.6754C29.6514 29.872 29.5154 31.04 27.4994 31.672C27.4434 31.512 27.2594 31.272 27.1394 31.152C28.9714 30.616 29.0434 29.672 29.0594 27.008ZM29.3234 30.264L29.7714 29.872C30.2754 30.256 30.9394 30.816 31.2674 31.168L30.7954 31.624C30.4754 31.264 29.8354 30.68 29.3234 30.264Z" fill="white"/>
</svg>
