<svg width="38" height="38" viewBox="0 0 38 38" fill="none" xmlns="http://www.w3.org/2000/svg">
<path d="M21.656 29.3221C21.6602 27.2877 22.4711 25.3379 23.9108 23.9005C25.3505 22.463 27.3016 21.6552 29.336 21.6541C31.3684 21.6583 33.3163 22.4676 34.7534 23.9047C36.1906 25.3418 36.9998 27.2897 37.004 29.3221C37.0024 31.3562 36.1944 33.3067 34.757 34.746C33.3196 36.1853 31.3701 36.9959 29.336 37.0001C27.3 36.9985 25.3478 36.1891 23.9079 34.7496C22.468 33.3101 21.6581 31.3581 21.656 29.3221ZM26.594 33.9221H27.532V29.0681C27.8931 29.5269 28.227 30.0064 28.532 30.5041L29.1 29.7041C28.5957 29.1118 28.0701 28.5381 27.524 27.9841V27.7241H28.836V26.8341H27.524V24.7461H26.586V26.8341H24.986V27.7241H26.46C26.1111 29.0172 25.5051 30.2266 24.678 31.2801C24.8643 31.5705 25.0281 31.8748 25.168 32.1901C25.7776 31.39 26.255 30.4973 26.582 29.5461L26.594 33.9221ZM30.676 33.9021H30.78C31.3559 33.9415 31.9342 33.882 32.49 33.7261C32.858 33.5741 32.98 33.3141 32.98 32.7261V27.7261H33.98V26.8361H32.98V24.7581H32.008V26.8361H29.178V27.7261H31.712C30.9758 29.2779 29.8685 30.6242 28.488 31.6461C28.739 31.8691 28.9644 32.1193 29.16 32.3921C30.3074 31.4557 31.2734 30.3169 32.01 29.0321V32.7261C32.01 32.9081 31.946 32.9621 31.754 32.9621H31.354C31.034 32.9621 30.67 32.9621 30.354 32.9481C30.4944 33.2519 30.6023 33.5697 30.676 33.8961V33.9021ZM19.96 33.3021H9.08201C6.94077 33.3011 4.88742 32.4505 3.37259 30.9372C1.85775 29.4239 1.00519 27.3713 1.00201 25.2301V9.08811C1.00519 6.94688 1.85775 4.89437 3.37259 3.38103C4.88742 1.8677 6.94077 1.01717 9.08201 1.01611H25.218C27.3592 1.01664 29.4127 1.86706 30.9273 3.38057C32.4419 4.89407 33.2939 6.9469 33.296 9.08811V19.9801C31.956 19.334 30.4876 18.9984 29 18.9981C26.3493 19.0029 23.8085 20.058 21.9342 21.9323C20.0599 23.8066 19.0048 26.3474 19 28.9981C18.9981 30.4782 19.3253 31.9401 19.958 33.2781L19.96 33.3021ZM24.786 18.5261C25.208 18.5261 25.744 18.0381 26.094 17.3461C26.512 16.5161 26.512 15.6721 26.094 15.4601L18.12 11.4601C18.0587 11.4268 17.9898 11.4096 17.92 11.4101C17.7886 11.4162 17.6604 11.4532 17.546 11.5181L14.402 8.18211L14.096 8.46211L17.208 11.7621C17.0521 11.918 16.9127 12.0896 16.792 12.2741L12.248 9.56811L12.032 9.93011L16.586 12.6381L10.964 11.8381L10.902 12.2381L16.434 13.0241C16.3843 13.1579 16.3494 13.2967 16.33 13.4381H10.886V13.8541H16.304C16.2985 13.9721 16.3239 14.0895 16.3775 14.1947C16.4312 14.2999 16.5113 14.3893 16.61 14.4541L17.972 15.1361H6.57201C6.12502 15.1366 5.69649 15.3144 5.38042 15.6305C5.06434 15.9466 4.88654 16.3751 4.88601 16.8221C4.88601 17.2696 5.06352 17.6989 5.37959 18.0157C5.69566 18.3325 6.12449 18.5111 6.57201 18.5121H24.67C24.7086 18.5156 24.7475 18.5149 24.786 18.5101V18.5261Z" fill="#3060ED"/>
<circle cx="29.5" cy="29.5" r="8.5" fill="#F37B24"/>
<path d="M29.6873 27.728H32.3193C31.7993 27.296 31.3033 26.808 30.9033 26.328C30.5433 26.84 30.1273 27.312 29.6873 27.728ZM29.5913 28.36V27.816C29.3193 28.064 29.0233 28.296 28.7433 28.496C28.6553 28.344 28.4393 28.032 28.3033 27.888C29.2873 27.288 30.2393 26.296 30.7833 25.224L31.4233 25.456C31.3753 25.56 31.3193 25.656 31.2713 25.752C31.8313 26.472 32.7833 27.264 33.5913 27.704C33.4553 27.88 33.2953 28.2 33.2233 28.392C32.9273 28.2 32.6233 27.984 32.3273 27.736V28.36H29.5913ZM31.4633 30.752L30.8553 30.848C30.8153 30.336 30.6713 29.552 30.5433 28.96L31.1193 28.88C31.2793 29.48 31.4073 30.24 31.4633 30.752ZM30.0953 30.928L29.4953 31.088C29.4233 30.576 29.2233 29.792 29.0153 29.184L29.5913 29.04C29.8153 29.632 30.0233 30.408 30.0953 30.928ZM28.7993 29.152L28.3673 29.656C28.2793 29.424 28.0873 29.04 27.9113 28.68V32.624H27.2313V29.152C27.0233 29.856 26.7593 30.512 26.4873 30.944C26.4153 30.72 26.2473 30.392 26.1353 30.2C26.5673 29.584 26.9673 28.432 27.1753 27.456H26.2473V26.76H27.2313V25.296H27.9113V26.76H28.6473V27.456H27.9113V27.752C28.1113 28.032 28.6793 28.92 28.7993 29.152ZM32.4873 28.88L33.1433 29.04C32.8153 29.88 32.3673 30.896 31.9673 31.616H33.3193V32.272H28.6153V31.616H31.3593C31.7593 30.864 32.2393 29.712 32.4873 28.88Z" fill="white"/>
</svg>
