<svg width="38" height="38" viewBox="0 0 38 38" fill="none" xmlns="http://www.w3.org/2000/svg">
<path d="M17.4057 28.7669C17.4057 23.7252 21.3505 19.6002 26.1719 19.6002C27.8375 19.6002 29.3278 20.0586 30.6427 20.8836C30.7304 20.8836 30.818 20.9752 30.9057 20.9752V4.20024C30.9057 3.00858 29.9414 2.00024 28.8018 2.00024H6.0096C4.86999 2.00024 3.9057 3.00858 3.9057 4.20024V32.8002C3.9057 33.9919 4.86999 35.0002 6.0096 35.0002H19.6849C18.2823 33.3502 17.4057 31.1502 17.4057 28.7669ZM11.4447 7.22524H23.3667C24.1557 7.22524 24.7693 7.86691 24.7693 8.69191C24.7693 9.51691 24.1557 10.1586 23.3667 10.1586H11.4447C10.6557 10.1586 10.0421 9.51691 10.0421 8.69191C10.0421 7.86691 10.6557 7.22524 11.4447 7.22524ZM11.4447 13.8252H23.3667C24.1557 13.8252 24.7693 14.4669 24.7693 15.2919C24.7693 16.1169 24.1557 16.7586 23.3667 16.7586H11.4447C10.6557 16.7586 10.0421 16.1169 10.0421 15.2919C10.0421 14.4669 10.6557 13.8252 11.4447 13.8252ZM16.3538 23.3586H11.4447C10.6557 23.3586 10.0421 22.7169 10.0421 21.8919C10.0421 21.0669 10.6557 20.4252 11.4447 20.4252H16.3538C17.1427 20.4252 17.7563 21.0669 17.7563 21.8919C17.7563 22.7169 17.1427 23.3586 16.3538 23.3586Z" fill="#3060ED"/>
<path d="M26.9814 21C31.1474 21.0003 34.4805 24.335 34.4805 28.501C34.48 32.6666 31.1471 35.9997 26.9814 36C22.8155 36 19.4819 32.6668 19.4814 28.501C19.4814 24.3348 22.8152 21 26.9814 21ZM26.5283 25.7959C26.2055 25.7959 25.9435 26.058 25.9434 26.3809V30.4736H30.0361C30.3588 30.4734 30.621 30.2114 30.6211 29.8887C30.6207 29.5662 30.3587 29.3039 30.0361 29.3037H27.1133V26.3809C27.1131 26.0582 26.8509 25.7962 26.5283 25.7959Z" fill="#F37B24"/>
</svg>
