<?xml version="1.0" standalone="no"?><!DOCTYPE svg PUBLIC "-//W3C//DTD SVG 1.1//EN" "http://www.w3.org/Graphics/SVG/1.1/DTD/svg11.dtd"><svg t="1747878069651" class="icon" viewBox="0 0 1498 1024" version="1.1" xmlns="http://www.w3.org/2000/svg" p-id="4417" xmlns:xlink="http://www.w3.org/1999/xlink" width="292.578125" height="200"><path d="M19.476225 19.476225h83.148501V0H0v102.624726h19.476225V19.476225z m0 985.04755h83.148501v19.476225H0V921.375274h19.476225v83.148501zM1479.444038 19.476225h-83.1485V0h102.624725v102.624726h-19.476225V19.476225z m0 985.04755h-83.1485v19.476225h102.624725V921.375274h-19.476225v83.148501z" fill="#FCC79F" p-id="4418"></path><path d="M1400.790051 888.415508c0 23.970739-19.476225 42.697879-42.697878 42.697879H140.079005c-23.970739 0-42.697879-19.476225-42.697878-42.697879V135.584492c0-23.970739 19.476225-42.697879 42.697878-42.697879h1218.013168c11.236284 0 22.472568 4.494514 30.712509 12.734455 8.239941 8.239941 12.734455 18.72714 12.734455 30.712509l-0.749086 752.081931z" fill="#ffffff" p-id="4419"></path><path d="M379.786394 471.923921c32.959766 0 62.174104-10.487198 88.392099-32.21068V397.015362H291.394294v42.697879c26.217996 21.723482 56.181419 32.21068 88.3921 32.21068z" fill="#CFE4FF" p-id="4420"></path><path d="M259.183614 331.844916c0 65.919532 53.185077 118.355523 118.355523 118.355523S495.89466 397.015362 495.89466 331.844916c0-65.919532-53.185077-118.355523-118.355523-118.355523-65.170446 0-118.355523 52.435991-118.355523 118.355523z" fill="#CFE4FF" p-id="4421"></path><path d="M280.907096 358.811997H479.414777v49.439649H280.907096v-49.439649z" fill="#F1F1F7" p-id="4422"></path><path d="M287.648866 331.844916c0 50.188734 40.450622 90.639356 90.639356 90.639356s89.890271-40.450622 89.890271-90.639356c0-50.188734-40.450622-90.639356-90.639356-90.639356s-89.890271 40.450622-89.890271 90.639356z" fill="#CFE4FF" p-id="4423"></path><path d="M355.066569 355.066569H404.506218c3.745428 0 6.74177 2.996342 6.74177 6.74177v3.745428h-63.672275v-3.745428c0-3.745428 3.745428-6.74177 7.490856-6.74177zM322.106803 376.040966h111.613753c8.989027 0 15.730797 2.996342 15.730797 6.74177v3.745428H306.376006v-3.745428c0-3.745428 7.490856-6.74177 15.730797-6.74177z" fill="#F1F1F7" p-id="4424"></path><path d="M347.575713 365.553767H411.997074v10.487199h-63.672275v-10.487199z" fill="#E4E5E8" p-id="4425"></path><path d="M379.786394 287.648866l-12.734455 6.74177 2.247256-13.48354-9.738112-10.487198 14.232626-2.247257 5.992685-12.734455 6.74177 12.734455 13.48354 2.247257-9.738112 9.738112 2.247257 13.483541-12.734455-5.992685zM358.811997 436.716898c0 11.985369 9.738113 20.974396 20.974397 20.974397s20.974396-9.738113 20.974396-20.974397-9.738113-20.974396-20.974396-20.974396-20.974396 8.989027-20.974397 20.974396zM330.346745 293.641551l-6.741771 2.996342 1.498172-6.74177-5.2436-5.243599 6.741771-0.749086 3.745428-6.74177 2.996342 6.74177 6.74177 0.749086-5.243599 5.243599 1.498171 6.74177-5.992684-2.996342z m24.719824 24.719824l-6.74177 2.996343 1.498171-6.741771-5.243599-5.243599 6.74177-0.749085 3.745428-6.741771 2.996342 6.741771 6.741771 0.749085-4.494514 5.243599 1.498171 6.741771-6.74177-2.996343z m49.439649 0l-6.74177 2.996343 1.498171-6.741771-5.243599-5.243599 6.74177-0.749085 3.745428-6.741771 2.996342 6.741771 6.741771 0.749085-4.494514 5.243599 1.498171 6.741771-6.74177-2.996343z m24.719824-24.719824l-6.74177 2.996342 1.498171-6.74177-5.243599-5.243599 6.74177-0.749086 3.745428-6.74177 2.996343 6.74177 6.74177 0.749086-4.494513 5.243599 1.498171 6.74177-6.741771-2.996342z" fill="#FFFFFF" p-id="4426"></path><path d="M549.079737 583.537674h689.907827v78.653987H549.079737V583.537674z m0 149.068032h689.907827v78.653987H549.079737V732.605706zM624.737381 214.238478v15.730798h32.959766v44.19605h-8.989027v-5.2436h-23.970739V299.634236h-8.989027v-30.71251H591.777615v5.2436h-8.989027v-44.945136h32.959766v-15.730797l8.989027 0.749085z m-8.239941 46.443307v-21.723482h-23.970739v21.723482h23.970739z m32.959766 0v-21.723482h-23.970739v21.723482h23.970739z m24.719824-12.734455l-2.996342-8.989027c11.236284-6.74177 19.476225-14.981712 24.719824-24.719825l7.490856 3.745428c-2.996342 5.243599-6.74177 10.487198-10.487198 14.981712v29.963424h-8.239942v-22.472568c-3.745428 2.247257-7.490856 5.243599-10.487198 7.490856z m33.708851 20.225311v-8.239942h8.989028v8.239942h35.956108V277.161668h-35.956108v22.472568h-8.989028v-22.472568h-35.207022v-8.239942h35.207022z m14.981712-8.239942c-5.992685 0-8.989027-2.996342-8.989027-8.989027v-5.243599c-3.745428 1.498171-7.490856 2.996342-11.985369 4.494514l-5.243599-6.741771c5.992685-2.247257 11.985369-3.745428 16.479883-6.74177v-20.225311h8.239941V232.216533c8.239941-4.494514 15.730797-8.989027 20.974397-14.232627l5.992684 5.992685c-7.490856 6.74177-17.228969 12.734455-26.967081 17.228969v7.490856c0 1.498171 0.749086 2.996342 2.996342 2.996342h12.734455c2.247257 0 3.745428-0.749086 4.494514-1.498171 0.749086-0.749086 2.247257-4.494514 2.247257-10.487199l8.239941 2.996343c-0.749086 8.239941-2.247257 12.734455-4.494513 14.232626-2.247257 1.498171-5.243599 2.247257-8.989027 2.247257 1.498171 0.749086-15.730797 0.749086-15.730798 0.749085z m84.646672-24.719824c5.243599 24.719824 18.72714 42.697879 39.701536 56.181419l-5.992685 7.490856c-17.978054-11.985369-29.963424-27.716167-36.705194-47.192392-5.992685 19.476225-18.72714 34.457937-38.203365 47.192392l-5.243599-7.490856c24.719824-14.981712 37.454279-35.956108 38.203365-62.174104v-14.232626h8.989027c0 7.490856 0 14.232626-0.749085 20.225311z m63.672275 51.686906c7.490856-1.498171 14.981712-3.745428 22.472568-6.741771l2.247256 8.239942c-8.989027 2.996342-19.476225 5.992685-32.959766 8.239941l-2.247256-8.239941c1.498171-0.749086 2.247257-2.247257 2.247256-4.494514v-67.417703h66.668618v28.465253h-24.719825c0 3.745428 0.749086 7.490856 1.498172 11.236283h29.214338v8.239942h-26.967082c0.749086 1.498171 0.749086 3.745428 1.498171 5.243599 2.996342 6.74177 5.992685 11.236284 8.989028 14.232626 2.996342 2.996342 5.992685 4.494514 8.239941 4.494514 0.749086 0 1.498171-0.749086 2.247257-2.247257 0.749086-1.498171 0.749086-5.243599 1.498171-11.236284l7.490856 4.494514c-1.498171 7.490856-2.996342 12.734455-4.494514 14.981711-1.498171 2.247257-3.745428 3.745428-5.992684 3.745428-4.494514 0-8.989027-2.247257-13.483541-6.74177-4.494514-4.494514-8.989027-10.487198-12.734455-17.978054-0.749086-2.247257-2.247257-5.243599-2.996342-8.239942h-28.465253l0.749086 21.723483z m0-60.675933v11.985369h49.439649v-11.985369h-49.439649z m0 20.225311v11.236284h26.217995c-0.749086-3.745428-1.498171-6.74177-1.498171-11.236284h-24.719824z m108.61741 30.712509c-7.490856 8.239941-17.228969 15.730797-27.716167 22.472568l-5.992684-7.490856c11.236284-5.992685 20.225311-12.734455 27.716167-20.225311l5.992684 5.243599z m-13.48354-44.945135v-17.978055h8.989027V232.216533h23.970739v-17.978055h8.989027V232.216533h15.730797v8.239941h-15.730797v19.476225h20.225311v8.239942h-82.399415v-8.239942h20.225311v-19.476225h-14.981712V232.216533h14.981712z m32.959766 28.465252v-19.476225h-23.970739v19.476225h23.970739z m29.963423 31.461595l-6.74177 6.74177c-6.74177-6.74177-14.981712-14.232626-26.217996-21.723482l6.741771-5.992685c9.738113 7.490856 18.72714 14.232626 26.217995 20.974397z m25.46891-53.185077v-11.236284c-4.494514 0.749086-8.239941 0.749086-12.734455 1.498171l-2.996342-7.490856c14.232626-0.749086 25.46891-3.745428 34.457937-6.74177l4.494513 6.74177c-4.494514 1.498171-9.738113 2.996342-14.232626 4.494514v12.734455h14.981712V247.198244h-14.981712v3.745428c5.243599 4.494514 10.487198 9.738113 15.730798 14.981712l-5.2436 7.490856c-4.494514-5.992685-7.490856-10.487198-10.487198-14.232626v38.95245h-8.239941v-36.705193c-3.745428 7.490856-8.239941 14.981712-14.232626 20.974396l-3.745428-9.738113c8.239941-7.490856 14.232626-15.730797 17.978054-25.46891h-14.981712v-8.239941h14.232626z m62.92319 56.181419h-8.239942v-6.74177h-19.476225v7.490856h-8.239942V220.231163h36.705194l-0.749085 74.908559z m-8.239942-14.981712v-52.435991h-19.476225v52.435991h19.476225z m100.377469 18.72714h-8.989027v-3.745428h-59.177762v3.745428h-8.239941V217.983906h77.155816v80.901244z m-8.989027-11.985369v-60.675933h-59.177762v60.675933h59.177762z m-7.490856-53.934163v7.490856h-17.978054v11.236284h14.981712v7.490856h-14.981712v12.734455h8.989027c-1.498171-3.745428-3.745428-6.74177-5.243599-9.738113l6.74177-2.247257c2.247257 2.996342 3.745428 5.992685 5.992685 9.738113l-5.243599 2.247257h8.989027v7.490856h-50.93782v-7.490856h20.974396v-12.734455h-14.981711v-7.490856h14.981711v-11.236284h-18.727139v-7.490856h46.443306zM584.286759 439.713241l-6.74177-5.992685c6.74177-11.236284 9.738113-26.217996 9.738113-44.19605v-31.461595h69.664959V382.03365h-25.46891v8.989027h28.465253v8.239942h-28.465253v8.989027h22.472568v32.21068h-8.239941v-3.745428h-35.956109v3.745428h-8.239941v-32.21068h20.974396v-8.989027h-26.967081c-1.498171 14.981712-4.494514 28.465252-11.236284 40.450622z m11.98537-73.410388V374.542794h52.435991v-8.239941h-52.435991z m0 15.730797v8.989027h26.967081V382.03365h-26.967081z m49.439649 45.694221v-11.985369h-35.956109v11.985369h35.956109z m88.392099 0c7.490856-1.498171 14.981712-3.745428 22.472568-6.74177l2.247257 8.239941c-8.989027 2.996342-19.476225 5.992685-32.959766 8.239942l-2.247257-8.239942c1.498171-0.749086 2.247257-2.247257 2.247257-4.494513v-67.417703h66.668617v29.214338h-24.719824c0 3.745428 0.749086 7.490856 1.498171 11.236284h29.214338v8.239941H771.558157c0.749086 1.498171 0.749086 3.745428 1.498171 5.243599 2.996342 6.74177 5.992685 11.236284 8.989027 14.232626 2.996342 2.996342 5.992685 4.494514 8.239941 4.494514 0.749086 0 1.498171-0.749086 2.247257-2.247257 0.749086-1.498171 0.749086-5.243599 1.498171-11.236284l7.490856 4.494514c-1.498171 7.490856-2.996342 12.734455-4.494513 14.981712-1.498171 2.247257-3.745428 3.745428-5.992685 3.745428-4.494514 0-8.989027-2.247257-13.483541-6.741771-4.494514-4.494514-8.989027-10.487198-12.734455-17.978054-0.749086-2.247257-2.247257-5.243599-2.996342-8.239941H734.103877v20.974396z m0-61.425018v11.985369h49.439649v-11.985369H734.103877z m0 20.225311V397.015362h26.217996c-0.749086-3.745428-1.498171-6.74177-1.498171-11.236284l-24.719825 0.749086z m163.300658-31.461595l-2.247256 6.74177h26.217995v38.952451c3.745428-4.494514 6.74177-9.738113 8.989027-14.232626l7.490856 4.494513c-4.494514 8.239941-9.738113 14.981712-16.479883 20.974397v18.72714c0 5.992685-2.996342 8.989027-8.239941 8.989027h-9.738113l-2.247257-8.239942h8.989027c1.498171 0 2.247257-0.749086 2.247257-2.996342v-9.738113l-4.494513 2.996343c-12.734455 7.490856-28.465252 12.734455-46.443307 15.730797l-3.745428-7.490856c22.472568-3.745428 39.701536-9.738113 50.188735-17.228969h-50.188735V404.506218h10.487199v-42.697879h18.727139c0.749086-2.247257 1.498171-5.243599 2.247257-8.239941l8.239941 1.498171z m15.730798 21.723482v-6.74177H876.430139v6.74177h36.705194z m0 13.483541v-6.74177H876.430139v6.74177h36.705194z m0 14.981712v-7.490856H876.430139v7.490856h36.705194z m105.621068-47.192393c-2.247257 6.74177-5.243599 13.483541-8.989027 19.476226v62.174104h-8.989027v-48.690564l-8.239942 9.738113-2.996342-8.989027c9.738113-10.487198 16.479883-22.472568 20.974396-36.705194l8.239942 2.996342z m3.745428 40.450622v-8.239941c-1.498171 1.498171-2.996342 2.996342-3.745428 4.494513l-6.74177-5.992684c8.239941-8.239941 14.981712-19.476225 19.476225-32.959766l8.239941 2.996342c-4.494514 12.734455-9.738113 23.221653-16.479883 31.461595h41.199708c0 20.225311 0 32.959766-1.498171 38.203365-0.749086 6.74177-5.243599 9.738113-11.98537 9.738112H1041.228969l-2.247257-8.239941c3.745428 0 7.490856 0.749086 10.487198 0.749086s4.494514-2.247257 5.243599-5.992685c0.749086-2.247257 0.749086-11.236284 0.749086-25.46891h-13.483541c-1.498171 9.738113-3.745428 17.228969-6.74177 23.221653-2.996342 6.74177-8.239941 12.734455-14.981712 17.978054l-5.992685-6.74177c5.992685-4.494514 9.738113-8.989027 12.734455-14.232626 2.247257-5.243599 4.494514-11.236284 5.992685-19.476226l-10.487198-1.498171z m53.185077-11.985369l-5.992685 6.74177c-11.236284-8.989027-18.72714-20.225311-22.472568-34.457937l7.490856-4.494513c3.745428 13.483541 11.236284 23.970739 20.974397 32.21068z m74.159473-4.494514v37.45428c2.247257-2.247257 5.243599-4.494514 8.239941-7.490856l2.247257 8.989027c-5.992685 5.243599-11.236284 9.738113-17.978054 14.232626l-2.996342-7.490856c1.498171-1.498171 2.247257-2.996342 2.247256-4.494513v-32.959766h-12.734455V382.03365h20.974397z m5.992685-12.734455l-5.992685 5.992685c-3.745428-4.494514-8.239941-8.989027-14.981712-13.483541l5.992685-5.992684c5.992685 4.494514 11.236284 8.989027 14.981712 13.48354z" fill="#CFE4FF" p-id="4427"></path><path d="M1159.584492 367.051939v-8.239942h52.435991V367.051939h-17.978054v23.970738h16.479883v8.239942h-16.479883v29.214338h19.476225v8.239941h-56.930505v-8.239941h8.239942v-47.192392h8.239941v47.192392h11.236284V367.051939h-24.719824z" fill="#CFE4FF" p-id="4428"></path><path d="M917.629846 332.594001h-46.443306S847.215801 269.670812 831.485004 269.670812H657.697147c-14.981712 0-47.192392 62.923189-47.192392 62.923189h-32.959766c-2.996342-5.992685-14.232626-23.970739-17.978054-23.970738h-53.185077c-4.494514 0-14.232626 23.970739-14.232626 25.46891 0 1.498171 0.749086 2.996342 1.498171 4.494513-29.963424 12.734455-48.690563 41.199707-48.690563 74.159473v217.983907c0 20.974396 8.239941 41.199707 23.221653 56.930505 14.981712 14.981712 35.207023 23.221653 56.930505 23.221653h392.520848c44.19605 0 80.152158-35.956108 80.901244-79.403073V412.746159c-0.749086-44.19605-36.705194-80.152158-80.901244-80.152158z m-364.055596 69.66496c-5.992685 5.992685-14.232626 8.989027-22.472567 8.989027s-16.479883-2.996342-22.472568-8.989027c-5.992685-5.992685-8.989027-14.232626-8.989027-22.472567 0-17.228969 14.232626-31.461595 31.461595-31.461595 8.239941 0 16.479883 2.996342 22.472567 8.989027 5.992685 5.992685 8.989027 14.232626 8.989027 22.472568s-2.996342 16.479883-8.989027 22.472567z m191.016825 253.190929c-82.399415 0-149.817118-66.668617-149.817117-149.817118 0-82.399415 67.417703-149.817118 149.817117-149.817117 83.1485 0 149.817118 66.668617 149.817118 149.817117 0 82.399415-66.668617 149.817118-149.817118 149.817118z" fill="#FCC79F" p-id="4429"></path><path d="M744.591075 608.257498c-56.930505 0-102.624726-45.694221-102.624725-102.624726s45.694221-102.624726 102.624725-102.624725 102.624726 45.694221 102.624726 102.624725-46.443307 102.624726-102.624726 102.624726z" fill="#FCC79F" p-id="4430"></path></svg>